<svg height="480pt" viewBox="0 0 480.04466 480" width="480pt" xmlns="http://www.w3.org/2000/svg"><path d="m296.042969 376.015625h72c4.421875 0 8 3.582031 8 8v48c0 4.417969-3.578125 8-8 8h-256c-4.417969 0-8-3.582031-8-8v-48c0-4.417969 3.582031-8 8-8zm0 0" fill="#bddbff"/><path d="m296.042969 280.015625h72c4.421875 0 8 3.582031 8 8v8h-272v-8c0-4.417969 3.582031-8 8-8zm0 0" fill="#bddbff"/><path d="m104.042969 296.015625h272v40c0 4.417969-3.578125 8-8 8h-256c-4.417969 0-8-3.582031-8-8zm0 0" fill="#bddbff"/><path d="m112.042969 184.015625h256c4.421875 0 8 3.582031 8 8v48c0 4.417969-3.578125 8-8 8h-256c-4.417969 0-8-3.582031-8-8v-48c0-4.417969 3.582031-8 8-8zm0 0" fill="#bddbff"/><g fill="#3d9ae2"><path d="m368.042969 176.015625h-256c-8.835938 0-16 7.164063-16 16v48c0 8.835937 7.164062 16 16 16h16v16h-16c-8.835938 0-16 7.164063-16 16v48c0 8.835937 7.164062 16 16 16h16v16h-16c-8.835938 0-16 7.164063-16 16v48c0 8.835937 7.164062 16 16 16h16v24c0 4.417969 3.582031 8 8 8h48c4.421875 0 8-3.582031 8-8v-24h96v24c0 4.417969 3.582031 8 8 8h48c4.421875 0 8-3.582031 8-8v-24h16c8.839843 0 16-7.164063 16-16v-48c0-8.835937-7.160157-16-16-16h-16v-16h16c8.839843 0 16-7.164063 16-16v-48c0-8.835937-7.160157-16-16-16h-16v-16h16c8.839843 0 16-7.164063 16-16v-48c0-8.835937-7.160157-16-16-16zm-224 80h32v16h-32zm144 0v16h-96v-16zm-144 96h32v16h-32zm144 0v16h-96v-16zm-112 112h-32v-16h32zm160 0h-32v-16h32zm32-32h-256v-48h256zm-32-64h-32v-16h32zm32-32h-256v-48h256zm-32-64h-32v-16h32zm-224-32v-48h256v48zm0 0"/><path d="m320.042969 208.015625h16v16h-16zm0 0"/><path d="m288.042969 208.015625h16v16h-16zm0 0"/><path d="m256.042969 208.015625h16v16h-16zm0 0"/><path d="m144.042969 208.015625h80v16h-80zm0 0"/><path d="m320.042969 304.015625h16v16h-16zm0 0"/><path d="m288.042969 304.015625h16v16h-16zm0 0"/><path d="m256.042969 304.015625h16v16h-16zm0 0"/><path d="m144.042969 304.015625h80v16h-80zm0 0"/><path d="m320.042969 400.015625h16v16h-16zm0 0"/><path d="m288.042969 400.015625h16v16h-16zm0 0"/><path d="m256.042969 400.015625h16v16h-16zm0 0"/><path d="m144.042969 400.015625h80v16h-80zm0 0"/><path d="m392.042969 128.015625h-.398438c-4.15625-40.855469-38.535156-71.949219-79.601562-72-7.246094.003906-14.460938 1.003906-21.4375 2.976563-24.285157-45.207032-76.191407-68.113282-125.953125-55.582032-49.761719 12.53125-84.628906 57.292969-84.609375 108.605469.007812 5.441406.425781 10.875 1.25 16.253906-47.167969 3.605469-83.042969 43.855469-81.2265628 91.125 1.8164058 47.269531 40.6757818 84.644531 87.9765628 84.621094v-16c-39.761719 0-72-32.234375-72-72s32.238281-72 72-72c.402343 0 .800781 0 1.195312.054687l1.453125.089844c2.5.109375 4.902344-.980468 6.472656-2.929687 1.585938-1.929688 2.175782-4.488281 1.601563-6.917969-11.445313-47.996094 15.386719-96.84375 62.03125-112.925781 46.648437-16.078125 97.882813 5.851562 118.449219 50.699219 1.753906 3.828124 6.175781 5.640624 10.109375 4.144531 19.726562-7.558594 41.910156-4.875 59.261719 7.171875 17.351562 12.046875 27.621093 31.898437 27.425781 53.019531-.007813 2.269531.941406 4.4375 2.621093 5.960937 1.675782 1.527344 3.925782 2.265626 6.179688 2.039063 26.539062-2.832031 52.46875 9.25 67.371094 31.390625 14.90625 22.140625 16.335937 50.710938 3.722656 74.230469-12.613281 23.523437-37.203125 38.136719-63.894531 37.972656v16c48.601562 0 88-39.398437 88-88s-39.398438-88-88-88zm0 0"/></g></svg>