<?xml version="1.0" encoding="iso-8859-1"?>
<!-- Generator: Adobe Illustrator 19.0.0, SVG Export Plug-In . SVG Version: 6.00 Build 0)  -->
<svg version="1.1" id="Capa_1" xmlns="http://www.w3.org/2000/svg" xmlns:xlink="http://www.w3.org/1999/xlink" x="0px" y="0px"
	 viewBox="0 0 496.485 496.485" style="enable-background:new 0 0 496.485 496.485;" xml:space="preserve">
<circle style="fill:#E1E6E9;" cx="248.242" cy="248.242" r="248.242"/>
<polygon style="fill:#FFFFFF;" points="267.636,488.727 215.661,488.727 206.352,314.958 276.945,314.958 "/>
<path style="fill:#193651;" d="M267.636,496.485h-51.976c-3.879,0-7.758-3.103-7.758-6.982l-9.309-173.77
	c0-2.327,0.776-3.879,2.327-5.43s3.879-2.327,5.43-2.327h70.594c2.327,0,3.879,0.776,5.43,2.327c1.552,1.552,2.327,3.879,2.327,5.43
	l-9.309,173.77C275.394,493.382,272.291,496.485,267.636,496.485z M223.418,480.97h37.236l8.533-158.255h-54.303L223.418,480.97z"/>
<circle style="fill:#2EA2DB;" cx="242.036" cy="260.655" r="93.091"/>
<path style="fill:#193651;" d="M242.036,361.503c-55.855,0-100.848-44.994-100.848-100.848s44.994-100.848,100.848-100.848
	S342.885,204.8,342.885,260.655C342.885,315.733,297.891,361.503,242.036,361.503z M242.036,175.321
	c-47.321,0-85.333,38.012-85.333,85.333s38.012,85.333,85.333,85.333s85.333-38.012,85.333-85.333S289.358,175.321,242.036,175.321z
	"/>
<circle style="fill:#FFFFFF;" cx="242.036" cy="260.655" r="63.612"/>
<g>
	<rect x="194.715" y="252.897" style="fill:#193651;" width="15.515" height="14.739"/>
	<rect x="234.279" y="252.897" style="fill:#193651;" width="15.515" height="14.739"/>
	<rect x="273.842" y="252.897" style="fill:#193651;" width="15.515" height="14.739"/>
	<rect x="234.279" y="392.533" style="fill:#193651;" width="15.515" height="25.6"/>
</g>
<circle style="fill:#FDBF5E;" cx="429.77" cy="105.503" r="58.958"/>
<g>
	<path style="fill:#193651;" d="M429.77,172.994c-37.236,0-66.715-30.255-66.715-66.715s29.479-67.491,66.715-67.491
		s66.715,30.255,66.715,66.715S466.23,172.994,429.77,172.994z M429.77,54.303c-28.703,0-51.2,23.273-51.2,51.2
		s23.273,51.2,51.2,51.2c28.703,0,51.2-23.273,51.2-51.2S457.697,54.303,429.77,54.303z"/>
	<path style="fill:#193651;" d="M434.424,117.139h-9.309v-5.43c0-2.327,0-3.879,0.776-4.655c0.776-0.776,1.552-2.327,3.103-4.655
		l6.206-6.206c1.552-1.552,1.552-3.103,1.552-5.43c0-2.327-0.776-3.879-2.327-5.43s-3.103-2.327-5.43-2.327s-3.879,0.776-5.43,2.327
		c-1.552,1.552-2.327,3.103-2.327,5.43h-10.085c0.776-4.655,2.327-8.533,5.43-11.636c3.103-3.103,7.758-3.879,12.412-3.879
		c4.655,0,9.309,1.552,12.412,3.879s4.655,6.206,4.655,11.636c0,3.103-0.776,6.206-3.103,8.533
		c-0.776,1.552-1.552,2.327-2.327,3.103s-1.552,1.552-2.327,2.327c-0.776,0.776-1.552,1.552-2.327,2.327
		c-0.776,0.776-0.776,1.552-1.552,1.552c0,0.776,0,2.327,0,4.655V117.139z M429.77,135.758c-1.552,0-3.103-0.776-4.655-1.552
		c-1.552-1.552-1.552-2.327-1.552-4.655c0-2.327,0.776-3.103,1.552-4.655c1.552-1.552,3.103-1.552,4.655-1.552
		c1.552,0,3.103,0.776,4.655,1.552c1.552,1.552,1.552,2.327,1.552,4.655c0,1.552-0.776,3.103-1.552,4.655
		C432.873,134.982,431.321,135.758,429.77,135.758z"/>
</g>
<circle style="fill:#FDBF5E;" cx="249.018" cy="66.715" r="58.958"/>
<g>
	<path style="fill:#193651;" d="M249.018,134.206c-37.236,0-66.715-30.255-66.715-66.715S211.782,0,249.018,0
		s66.715,30.255,66.715,66.715S285.479,134.206,249.018,134.206z M249.018,15.515c-28.703,0-51.2,23.273-51.2,51.2
		s23.273,51.2,51.2,51.2c28.703,0,51.2-23.273,51.2-51.2S276.945,15.515,249.018,15.515z"/>
	<path style="fill:#193651;" d="M253.673,78.352h-9.309v-5.43c0-2.327,0-3.879,0.776-4.655s1.552-2.327,3.103-4.655l6.206-6.206
		C256,56.63,256,55.079,256,52.752s0-3.879-1.552-4.655c-1.552-1.552-3.103-2.327-5.43-2.327c-2.327,0-3.879,0.776-5.43,2.327
		c-1.552,1.552-2.327,3.103-2.327,5.43h-10.085c0.776-4.655,2.327-8.533,5.43-11.636c3.103-3.103,7.758-3.879,12.412-3.879
		c4.655,0,9.309,1.552,12.412,3.879s4.655,6.206,4.655,11.636c0,3.103-0.776,6.206-3.103,8.533
		c-0.776,1.552-1.552,2.327-2.327,3.103s-1.552,1.552-2.327,2.327c-0.776,0.776-1.552,1.552-2.327,2.327
		c0-1.552-0.776-0.776-0.776,0c-0.776,1.552-1.552,3.103-1.552,5.43V78.352z M249.018,96.97c-1.552,0-3.103-0.776-4.655-1.552
		c-1.552-1.552-1.552-2.327-1.552-4.655c0-1.552,0.776-3.103,1.552-4.655c1.552-1.552,3.103-1.552,4.655-1.552
		c1.552,0,3.103,0.776,4.655,1.552c1.552,1.552,1.552,2.327,1.552,4.655c0,1.552-0.776,3.103-1.552,4.655
		C252.121,96.194,250.57,96.97,249.018,96.97z"/>
</g>
<circle style="fill:#FDBF5E;" cx="68.267" cy="105.503" r="58.958"/>
<g>
	<path style="fill:#193651;" d="M68.267,172.994c-37.236,0-66.715-30.255-66.715-66.715S31.03,38.788,68.267,38.788
		s66.715,30.255,66.715,66.715S104.727,172.994,68.267,172.994z M68.267,54.303c-28.703,0-51.2,23.273-51.2,51.2
		s23.273,51.2,51.2,51.2c28.703,0,51.2-23.273,51.2-51.2S96.194,54.303,68.267,54.303z"/>
	<path style="fill:#193651;" d="M72.921,117.139h-9.309v-5.43c0-2.327,0-3.879,0.776-4.655c0.776-0.776,1.552-2.327,3.103-4.655
		l6.206-6.206c1.552-1.552,1.552-3.103,1.552-5.43c0-2.327-0.776-3.879-2.327-5.43s-3.103-2.327-5.43-2.327
		c-2.327,0-3.879,0.776-5.43,2.327s-2.327,3.103-2.327,5.43h-9.309c0.776-4.655,2.327-8.533,5.43-11.636s7.758-3.879,12.412-3.879
		s9.309,1.552,12.412,3.879c3.103,2.327,4.655,6.206,4.655,11.636c0,3.103-0.776,6.206-3.103,8.533
		c-0.776,1.552-1.552,2.327-2.327,3.103c-0.776,0.776-1.552,1.552-2.327,2.327c-0.776,0.776-1.552,1.552-2.327,2.327
		c-0.776,0.776-0.776,1.552-1.552,1.552c-0.776,1.552-1.552,3.103-1.552,5.43v3.103H72.921z M68.267,135.758
		c-1.552,0-3.103-0.776-4.655-1.552c-1.552-1.551-1.552-3.103-1.552-4.655c0-1.552,0.776-3.103,1.552-4.655
		c1.552-1.552,3.103-1.552,4.655-1.552c1.552,0,3.103,0.776,4.655,1.552c1.552,1.552,1.552,2.327,1.552,4.655
		c0,1.552-0.776,3.103-1.552,4.655C71.37,134.982,69.818,135.758,68.267,135.758z"/>
	<rect x="480.97" y="249.794" style="fill:#193651;" width="15.515" height="139.636"/>
	<rect x="480.97" y="408.048" style="fill:#193651;" width="15.515" height="15.515"/>
	<rect x="480.97" y="439.079" style="fill:#193651;" width="15.515" height="15.515"/>
	<rect x="431.321" y="211.006" style="fill:#193651;" width="15.515" height="139.636"/>
	<rect x="431.321" y="369.261" style="fill:#193651;" width="15.515" height="15.515"/>
	<rect x="431.321" y="400.291" style="fill:#193651;" width="15.515" height="15.515"/>
	<rect x="381.673" y="249.794" style="fill:#193651;" width="15.515" height="139.636"/>
	<rect x="381.673" y="408.048" style="fill:#193651;" width="15.515" height="15.515"/>
	<rect x="381.673" y="439.079" style="fill:#193651;" width="15.515" height="15.515"/>
	<rect x="100.073" y="257.552" style="fill:#193651;" width="15.515" height="139.636"/>
	<rect x="100.073" y="415.806" style="fill:#193651;" width="15.515" height="15.515"/>
	<rect x="100.073" y="446.836" style="fill:#193651;" width="15.515" height="15.515"/>
	<rect x="50.424" y="218.764" style="fill:#193651;" width="15.515" height="139.636"/>
	<rect x="50.424" y="377.018" style="fill:#193651;" width="15.515" height="15.515"/>
	<rect x="50.424" y="408.048" style="fill:#193651;" width="15.515" height="15.515"/>
	<rect x="0.776" y="257.552" style="fill:#193651;" width="15.515" height="139.636"/>
	<rect x="0.776" y="415.806" style="fill:#193651;" width="15.515" height="15.515"/>
	<rect x="0.776" y="446.836" style="fill:#193651;" width="15.515" height="15.515"/>
</g>
<g>
</g>
<g>
</g>
<g>
</g>
<g>
</g>
<g>
</g>
<g>
</g>
<g>
</g>
<g>
</g>
<g>
</g>
<g>
</g>
<g>
</g>
<g>
</g>
<g>
</g>
<g>
</g>
<g>
</g>
</svg>
