<?xml version="1.0" encoding="UTF-8" standalone="no"?>
<svg width="291px" height="291px" viewBox="0 0 291 291" version="1.1" xmlns="http://www.w3.org/2000/svg" xmlns:xlink="http://www.w3.org/1999/xlink">
    <!-- Generator: Sketch 49.2 (51160) - http://www.bohemiancoding.com/sketch -->
    <title>Logo_CCSC_Color</title>
    <desc>Created with Sketch.</desc>
    <defs></defs>
    <g id="Page-1" stroke="none" stroke-width="1" fill="none" fill-rule="evenodd">
        <g id="Logo_CCSC_Color" transform="translate(-35.000000, -34.000000)">
            <rect id="Rectangle-path" x="0" y="0" width="360" height="360"></rect>
            <path d="M184.1,109.5 C187.9,109.4 204.9,109.2 221.4,111.4 C227.2,112 233,112.9 238.1,114.2 C238.1,114.2 245.3,116 246.6,123.3 C247.1,126 247.7,129.6 248.1,133.7 C248.6,138.9 249,145 248.7,152 C248.7,152 248.7,152 248.6,152 C248.2,152 247.8,152 247.4,151.9 C247.3,151.9 247.2,151.9 247.1,151.9 C246.6,151.8 246.2,151.8 245.7,151.7 C245.6,151.7 245.5,151.7 245.4,151.7 C244.9,151.6 244.4,151.6 243.9,151.5 C243.9,151.5 243.8,151.5 243.7,151.5 C243.2,151.4 242.8,151.4 242.3,151.3 C242.2,151.3 242.1,151.3 242,151.3 C241.5,151.2 240.9,151.2 240.4,151.1 C240.3,151.1 240.2,151.1 240.1,151.1 C239.5,151 239,151 238.4,150.9 C238.3,150.9 238.3,150.9 238.2,150.9 C237.7,150.8 237.2,150.8 236.6,150.7 C236.5,150.7 236.4,150.7 236.3,150.7 C235.8,150.6 235.2,150.6 234.6,150.5 C234.5,150.5 234.3,150.5 234.2,150.5 C233.6,150.4 233,150.4 232.4,150.3 L232.3,150.3 C231.7,150.2 231.1,150.2 230.5,150.1 C230.4,150 230.3,150 230.1,150 C229.5,149.9 228.9,149.9 228.3,149.8 C228.2,149.8 228,149.8 227.9,149.8 C227.3,149.7 226.7,149.7 226.1,149.6 C226,149.6 226,149.6 225.9,149.6 C225.3,149.5 224.7,149.5 224,149.4 C223.9,149.4 223.7,149.4 223.6,149.4 C223,149.3 222.4,149.3 221.7,149.2 C221.6,149.2 221.4,149.2 221.3,149.2 C220.7,149.1 220.1,149.1 219.5,149 C219.4,149 219.3,149 219.2,149 C218.5,148.9 217.9,148.9 217.2,148.8 C217,148.8 216.9,148.8 216.7,148.8 C216,148.7 215.4,148.7 214.7,148.6 C214.6,148.6 214.5,148.6 214.4,148.6 C213.8,148.6 213.1,148.6 212.5,148.5 C212.4,148.5 212.3,148.5 212.2,148.5 C211.6,148.5 210.9,148.5 210.2,148.4 C210.1,148.4 210,148.4 209.8,148.4 C209.2,148.4 208.5,148.4 207.8,148.3 C207.7,148.3 207.6,148.3 207.5,148.3 C206.9,148.3 206.2,148.2 205.6,148.2 C205.5,148.2 205.4,148.2 205.3,148.2 C204.7,148.2 204,148.1 203.3,148.1 C203.2,148.1 203.1,148.1 202.9,148.1 C202.2,148.1 201.5,148 200.8,148 L200.7,148 C200,148 199.4,147.9 198.7,147.9 C198.5,147.9 198.4,147.9 198.3,147.9 C197.6,147.9 197,147.8 196.3,147.8 C196.2,147.8 196,147.8 195.9,147.8 C195.3,147.8 194.6,147.7 193.9,147.7 C190.8,147.6 187.7,147.5 184.7,147.5 L184.9,109.5 C184.9,109.5 184.6,109.5 184.1,109.5 Z M247.8,165.4 C244.2,193.2 231.4,229.1 195.2,263.6 C191.7,266.9 188,270.2 184.1,273.5 L184,272.8 L184.5,180.1 C193.2,177.3 203.1,174.6 213.9,172.1 C227.1,169 239.3,166.8 247.8,165.4 Z" id="shield_r_gray" fill="#65656B" fill-rule="nonzero"></path>
            <path d="M119.4,156 C118.9,147.3 119.2,139.7 119.7,133.6 C120.1,129.4 120.7,125.9 121.2,123.1 C122.5,115.8 129.7,114 129.7,114 C134.9,112.7 140.7,111.8 146.5,111.1 C163.2,109.2 180.2,109.4 184,109.5 C184.5,109.5 184.8,109.5 184.8,109.5 L184.6,147.5 C156.5,147.3 134.7,150.2 119.4,156 Z M184.5,180.1 L184,272.6 L184,273.3 C180.1,270 176.4,266.7 172.9,263.4 C171.8,262.4 170.8,261.4 169.8,260.4 C166.3,257 163.1,253.6 160.3,250.3 C155.8,245.3 152.2,240.6 149.4,236.7 C144.3,229.7 141.7,225 141.7,225 C141.6,224.6 141.4,224.3 141.3,223.9 C134.6,209.6 143.2,200.9 146.6,198.3 C146.8,198.2 146.9,198 147.1,197.9 C149.3,196.2 152,194.4 155,192.6 C155.7,192.1 156.2,191.9 156.2,191.9 C163.6,187.8 173.1,183.8 184.5,180.1 Z M189.1,53.4 L189.2,34.9 C261.8,39.4 319.9,97.1 325,169.6 L306.5,169.6 C301.4,107.4 251.5,57.8 189.1,53.4 Z M171,306.5 L171,325 C97.5,320.5 38.9,261.4 35,187.7 L53.5,187.7 C57.3,251.2 107.7,302.1 171,306.5 Z" id="ring_shield_orange" fill="#9D9D9F" fill-rule="nonzero"></path>
            <path d="M149.4,236.8 C152.2,240.7 155.8,245.4 160.3,250.3 C142.7,242.4 109.8,224.5 100.6,199.3 C86.3,160.3 139.4,151.5 193.8,153 C223.1,153.8 258.9,158.3 258.9,158.3 C258.9,158.3 174.3,169.1 143.7,193.8 C127.4,207 137.2,224 149.4,236.8 Z M53.7,169.7 L35.3,169.7 C40.3,97.2 98.5,39.4 171.1,35 L171.1,53.5 C108.6,57.9 58.7,107.4 53.7,169.7 Z M306.6,187.7 L325.1,187.7 C321.2,261.4 262.5,320.5 189.1,325 L189.1,306.5 C252.3,302.1 302.8,251.2 306.6,187.7 Z" id="ring_orange" fill="#FF6C0C" fill-rule="nonzero"></path>
        </g>
    </g>
</svg>